<?xml version="1.0" encoding="UTF-8" standalone="no"?>
<!-- Generator: Adobe Illustrator 19.0.0, SVG Export Plug-In . SVG Version: 6.00 Build 0)  -->

<svg
   xmlns:dc="http://purl.org/dc/elements/1.1/"
   xmlns:cc="http://creativecommons.org/ns#"
   xmlns:rdf="http://www.w3.org/1999/02/22-rdf-syntax-ns#"
   xmlns:svg="http://www.w3.org/2000/svg"
   xmlns="http://www.w3.org/2000/svg"
   xmlns:sodipodi="http://sodipodi.sourceforge.net/DTD/sodipodi-0.dtd"
   xmlns:inkscape="http://www.inkscape.org/namespaces/inkscape"
   version="1.1"
   id="Capa_1"
   x="0px"
   y="0px"
   viewBox="0 0 56 56"
   style="enable-background:new 0 0 56 56;"
   xml:space="preserve"
   width="48px"
   height="48px"
   inkscape:version="0.91 r13725"
   sodipodi:docname="menuBlanco.svg"><metadata
     id="metadata39"><rdf:RDF><cc:Work
         rdf:about=""><dc:format>image/svg+xml</dc:format><dc:type
           rdf:resource="http://purl.org/dc/dcmitype/StillImage" /><dc:title></dc:title></cc:Work></rdf:RDF></metadata><defs
     id="defs37" /><sodipodi:namedview
     pagecolor="#ffffff"
     bordercolor="#666666"
     borderopacity="1"
     objecttolerance="10"
     gridtolerance="10"
     guidetolerance="10"
     inkscape:pageopacity="0"
     inkscape:pageshadow="2"
     inkscape:window-width="1366"
     inkscape:window-height="692"
     id="namedview35"
     showgrid="false"
     inkscape:zoom="2.4583333"
     inkscape:cx="14.475652"
     inkscape:cy="34.404578"
     inkscape:window-x="0"
     inkscape:window-y="24"
     inkscape:window-maximized="1"
     inkscape:current-layer="Capa_1" /><path
     d="M28,0C12.561,0,0,12.561,0,28s12.561,28,28,28s28-12.561,28-28S43.439,0,28,0z M40,41H16c-1.104,0-2-0.896-2-2s0.896-2,2-2  h24c1.104,0,2,0.896,2,2S41.104,41,40,41z M40,30H16c-1.104,0-2-0.896-2-2s0.896-2,2-2h24c1.104,0,2,0.896,2,2S41.104,30,40,30z   M40,19H16c-1.104,0-2-0.896-2-2s0.896-2,2-2h24c1.104,0,2,0.896,2,2S41.104,19,40,19z"
     id="path3"
     fill="#f7484e" /><g
     id="g5" /><g
     id="g7" /><g
     id="g9" /><g
     id="g11" /><g
     id="g13" /><g
     id="g15" /><g
     id="g17" /><g
     id="g19" /><g
     id="g21" /><g
     id="g23" /><g
     id="g25" /><g
     id="g27" /><g
     id="g29" /><g
     id="g31" /><g
     id="g33" /><path
     style="fill:#ffffff"
     d="m 13.301076,35.082581 c -0.07691,-0.02017 -0.237076,-0.08398 -0.355932,-0.141801 -0.17505,-0.08516 -0.257278,-0.146713 -0.43286,-0.324021 -0.353044,-0.356517 -0.494401,-0.705181 -0.490733,-1.210416 0.0017,-0.228247 0.01418,-0.317053 0.06809,-0.483051 0.08972,-0.276228 0.225313,-0.497854 0.426637,-0.697346 0.28433,-0.281742 0.593331,-0.432624 0.992248,-0.484507 0.15025,-0.01954 3.249536,-0.02533 10.635767,-0.01988 10.014323,0.0074 10.429721,0.0095 10.576272,0.0542 0.48428,0.147632 0.874688,0.469593 1.081664,0.892022 0.149572,0.30527 0.185051,0.477554 0.170285,0.826891 -0.02037,0.481885 -0.158545,0.800936 -0.490091,1.131622 -0.203257,0.20273 -0.382641,0.317058 -0.651657,0.415325 l -0.186472,0.06812 -10.601695,0.0048 c -9.164703,0.0041 -10.620648,-2.11e-4 -10.741526,-0.03191 z"
     id="path3412"
     inkscape:connector-curvature="0"
     transform="scale(1.1666667,1.1666667)" /><path
     style="fill:#ffffff"
     d="m 13.459606,25.683766 c -0.354029,-0.05107 -0.675842,-0.215655 -0.943301,-0.482428 -0.202812,-0.202291 -0.337745,-0.422475 -0.426661,-0.69622 -0.05392,-0.165998 -0.06644,-0.254804 -0.06809,-0.483051 -0.0037,-0.505235 0.137689,-0.853898 0.490733,-1.210416 0.17558,-0.177306 0.257812,-0.238862 0.43286,-0.324022 0.118856,-0.05782 0.285288,-0.12242 0.369849,-0.143549 0.136142,-0.03402 1.366102,-0.03767 10.741525,-0.03191 l 10.587779,0.0065 0.165254,0.05653 c 0.503194,0.172133 0.93807,0.608238 1.09715,1.10025 0.08348,0.25818 0.09405,0.69482 0.02309,0.953466 -0.08534,0.311058 -0.2129,0.529587 -0.446139,0.764287 -0.218886,0.220257 -0.467152,0.369799 -0.763087,0.45964 -0.146412,0.04445 -0.573515,0.04646 -10.627119,0.0501 -6.126996,0.0022 -10.540682,-0.0057 -10.633843,-0.01918 z"
     id="path3414"
     inkscape:connector-curvature="0"
     transform="scale(1.1666667,1.1666667)" /><path
     style="fill:#ffffff"
     d="m 13.301076,16.22505 c -0.07691,-0.02017 -0.237076,-0.08398 -0.355932,-0.141802 -0.17505,-0.08516 -0.257278,-0.146712 -0.43286,-0.324021 -0.353044,-0.356517 -0.494401,-0.70518 -0.490733,-1.210416 0.0017,-0.228247 0.01418,-0.317053 0.06809,-0.48305 0.20958,-0.645239 0.748983,-1.094719 1.418184,-1.18176 0.151185,-0.01966 3.22877,-0.02544 10.636468,-0.01997 9.998026,0.0074 10.429959,0.0096 10.576272,0.054 0.467045,0.141783 0.879382,0.479687 1.076818,0.882438 0.154502,0.315169 0.190005,0.48478 0.175131,0.836671 -0.0084,0.199448 -0.02945,0.345803 -0.06582,0.458283 -0.15908,0.492011 -0.593956,0.928116 -1.09715,1.100249 l -0.165254,0.05653 -10.601695,0.0048 c -9.164703,0.0041 -10.620648,-2.11e-4 -10.741526,-0.03191 z"
     id="path3416"
     inkscape:connector-curvature="0"
     transform="scale(1.1666667,1.1666667)" /></svg>
